<svg width="186" height="78" viewBox="0 0 230 78" fill="none" xmlns="http://www.w3.org/2000/svg">
<path d="M33.8973 67.875C25.5359 67.875 18.0032 66.95 11.2739 60.275L19.9366 51.65C24.3307 56.025 30.0305 56.625 34.0982 56.625C38.6931 56.625 43.4639 55.1 43.4639 51.15C43.4639 48.5 42.0327 46.675 37.8645 46.275L29.5032 45.475C19.9366 44.55 14.0108 40.4 14.0108 30.675C14.0108 19.725 23.703 13.825 34.4999 13.825C42.7608 13.825 49.691 15.25 54.7881 20.025L46.6276 28.25C43.5643 25.5 38.894 24.7 34.299 24.7C29.001 24.7 26.7663 27.125 26.7663 29.775C26.7663 31.7 27.5698 33.925 32.2652 34.35L40.6265 35.15C51.1222 36.175 56.4202 41.75 56.4202 50.675C56.4202 62.3 46.4268 67.875 33.8973 67.875Z" fill="#FF003D"/>
<path d="M138.226 44.95C138.226 51.75 142.394 56.725 149.852 56.725C155.652 56.725 158.514 55.1 161.879 51.75L169.939 59.55C164.54 64.925 159.343 67.875 149.751 67.875C137.222 67.875 125.194 62.2 125.194 40.775C125.194 23.525 134.56 13.8 148.32 13.8C163.084 13.8 171.445 24.55 171.445 39.05V44.925H138.226V44.95ZM157.183 30.25C155.752 27.1 152.789 24.775 148.32 24.775C143.85 24.775 140.888 27.1 139.456 30.25C138.653 32.175 138.326 33.6 138.226 35.925H158.414C158.313 33.6 158.012 32.175 157.183 30.25Z" fill="#FF003D"/>
<path d="M191.282 44.95C191.282 51.75 195.45 56.725 202.907 56.725C208.707 56.725 211.57 55.1 214.934 51.75L222.995 59.55C217.596 64.925 212.398 67.875 202.807 67.875C190.277 67.875 178.25 62.2 178.25 40.775C178.25 23.525 187.616 13.8 201.376 13.8C216.14 13.8 224.501 24.55 224.501 39.05V44.925H191.282V44.95ZM210.214 30.25C208.783 27.1 205.82 24.775 201.35 24.775C196.881 24.775 193.918 27.1 192.487 30.25C191.683 32.175 191.357 33.6 191.257 35.925H211.444C211.344 33.6 211.043 32.175 210.214 30.25Z" fill="#FF003D"/>
<path d="M128.458 15.625C126.399 13.65 124.215 12.275 120.775 11.4C115.251 9.99998 108.471 11.225 105.509 14.4H92.5774V67.25H105.835V31.55C105.835 24.85 110.33 21.8 114.397 21.8C117.561 21.8 119.294 22.85 121.227 24.75L128.458 15.625Z" fill="#FF003D"/>
<path d="M85.9737 23.475V14.425H76.5829V10.125H63.3252V14.425H57.751V23.475H63.3503V52.175C63.3503 59.675 67.9453 67.3 78.7422 67.3H85.9737V56.15H81.1778C78.0141 56.15 76.5829 54.425 76.5829 51.375V23.475H85.9737Z" fill="#FF003D"/>
</svg>
